<svg width="27" height="23" viewBox="0 0 27 23" fill="none" xmlns="http://www.w3.org/2000/svg">
<path d="M9.19984 23C10.0467 23 10.7332 22.3135 10.7332 21.4667C10.7332 20.6198 10.0467 19.9333 9.19984 19.9333C8.353 19.9333 7.6665 20.6198 7.6665 21.4667C7.6665 22.3135 8.353 23 9.19984 23Z" fill="#C51C1F"/>
<path d="M20.9557 23C21.8025 23 22.489 22.3135 22.489 21.4667C22.489 20.6198 21.8025 19.9333 20.9557 19.9333C20.1089 19.9333 19.4224 20.6198 19.4224 21.4667C19.4224 22.3135 20.1089 23 20.9557 23Z" fill="#C51C1F"/>
<path d="M8.13266 14.375H23.7858L26.0858 2.875H6.10279L5.59547 0H0V1.91667H3.98786L6.86286 18.2083H23.9583V16.2917H8.47047L8.13266 14.375Z" fill="#C51C1F"/>
</svg>
