<svg width="71" height="41" viewBox="0 0 71 41" fill="none" xmlns="http://www.w3.org/2000/svg">
<rect width="71" height="41" fill="#1E1E1E"/>
<g clip-path="url(#clip0_1_793)">
<rect width="1440" height="6093" transform="translate(-1124 -5894)" fill="white"/>
<rect x="-1124" y="-336" width="1440" height="535" fill="#780E10"/>
<g clip-path="url(#clip1_1_793)">
<path d="M21.024 40.6675H17.6233C17.4141 35.5144 17.2064 30.3787 16.9956 25.1977C16.9494 25.3455 16.9077 25.4669 16.8736 25.5906C15.5038 30.5408 13.6655 35.3402 12.1001 40.2279C12.0387 40.4187 11.9469 40.4767 11.7514 40.4745C11.0312 40.4639 10.311 40.4797 9.59164 40.4601C9.48475 40.4571 9.31798 40.3357 9.2869 40.2362C7.77381 35.4239 6.11214 30.6547 5.04554 25.7135C5.01371 25.568 4.97504 25.4232 4.89014 25.2799C4.63013 30.4021 4.37087 35.5242 4.1101 40.6675H0.883789C1.29996 34.427 1.71614 28.1932 2.13459 21.9194H2.53106C3.78186 21.9194 5.03266 21.9262 6.2827 21.9141C6.54347 21.9119 6.67917 21.9669 6.76786 22.2422C8.21803 26.7188 9.77736 31.163 10.8121 35.7633C10.828 35.8342 10.8614 35.9021 10.922 36.0702C11.0266 35.6984 11.1123 35.4209 11.1828 35.1396C12.285 30.7248 13.8701 26.4631 15.3453 22.1668C15.3809 22.0627 15.5417 21.9322 15.6455 21.9307C17.0464 21.9149 18.4473 21.9202 19.9081 21.9202C20.2803 28.1713 20.6517 34.4081 21.024 40.669V40.6675Z" fill="#EDE1D2"/>
<path d="M15.5487 0.831756C15.2667 1.84986 15.0195 2.74126 14.7891 3.57308C13.8347 3.35891 12.9273 3.08741 12.0002 2.96147C10.4734 2.75483 8.94974 2.80913 7.48819 3.3853C5.64762 4.11079 4.45519 5.43734 3.93668 7.32346C3.46668 9.03538 3.49245 10.7646 4.10876 12.4388C4.97067 14.7812 6.73544 16.015 9.18398 16.3295C10.2187 16.4622 11.2497 16.3974 12.2731 16.1892C12.6453 16.1131 12.803 15.969 12.7916 15.5429C12.7544 14.1387 12.7779 12.7337 12.7779 11.2956H9.43641V8.59345H16.0497C16.0566 8.72241 16.0694 8.85438 16.0702 8.9856C16.0823 11.9004 16.0899 14.8159 16.1089 17.7307C16.1104 17.9901 16.0558 18.1281 15.7791 18.2149C13.5572 18.9155 11.2967 19.3023 8.95732 19.144C7.10462 19.0188 5.34667 18.6025 3.77445 17.5655C1.93615 16.3521 0.802853 14.6508 0.325275 12.5309C-0.237965 10.0263 -0.109094 7.56479 1.02724 5.21713C1.97027 3.26841 3.48487 1.8951 5.45811 1.02557C7.92863 -0.0634174 10.5129 -0.190114 13.1403 0.245029C13.9401 0.377759 14.7209 0.626628 15.5487 0.831002V0.831756Z" fill="#EDE1D2"/>
<path d="M30.5211 5.39946H33.9884C33.9884 5.5533 33.9884 5.6981 33.9884 5.84214C33.9937 8.31801 33.9884 10.7939 34.0097 13.2697C34.0165 14.0556 34.1651 14.8293 34.6229 15.4915C35.4068 16.6257 37.1427 16.7713 38.2791 15.8127C38.9143 15.2773 39.3138 14.6068 39.3184 13.7607C39.3335 11.1468 39.3343 8.53219 39.3403 5.91831C39.3403 5.75692 39.3403 5.59629 39.3403 5.40775H42.8062V18.9213H39.8384C39.7815 18.2554 39.7262 17.6061 39.6618 16.855C39.5397 17.0148 39.4624 17.1129 39.3889 17.2139C37.8083 19.3761 34.4455 19.9221 32.4003 18.3361C31.3527 17.5231 30.8895 16.3798 30.6818 15.1227C30.584 14.5299 30.5317 13.9236 30.5279 13.3233C30.5112 10.772 30.5203 8.22072 30.5203 5.66869C30.5203 5.59478 30.5203 5.52088 30.5203 5.39795L30.5211 5.39946Z" fill="#EDE1D2"/>
<path d="M57.5595 27.1189H61.0034C61.0034 27.278 61.0034 27.4243 61.0034 27.5707C61.0034 29.7939 60.9821 32.0179 61.0155 34.2411C61.0269 34.9621 61.1095 35.6989 61.2869 36.3964C61.7895 38.3655 63.7938 38.4847 64.962 37.7539C65.9634 37.128 66.3575 36.1898 66.353 35.0382C66.3424 32.5631 66.35 30.0888 66.35 27.6136V27.1302H69.8249V40.6657H66.8654C66.8094 40.005 66.7533 39.3474 66.6994 38.7117C66.2241 39.1687 65.7973 39.6664 65.2864 40.0541C63.4997 41.4093 60.6198 41.2743 59.0968 39.7879C58.1781 38.8912 57.8043 37.7388 57.6558 36.5065C57.5853 35.9221 57.5656 35.3293 57.5625 34.7403C57.5527 32.3535 57.5587 29.9666 57.5587 27.5797V27.1182L57.5595 27.1189Z" fill="#EDE1D2"/>
<path d="M54.7184 40.6766H51.6005C51.5224 40.1796 51.4458 39.6902 51.3655 39.1819C50.9728 39.5114 50.64 39.8606 50.2435 40.1117C48.7585 41.0537 47.1582 41.2656 45.5011 40.6577C43.728 40.0069 42.7152 38.0786 43.0465 36.1675C43.3861 34.2083 44.665 33.1193 46.4373 32.4805C47.7093 32.0227 49.036 31.8719 50.38 31.8433C50.6051 31.8387 50.8303 31.8433 51.0448 31.8433C51.251 30.7777 50.6195 29.7528 49.6106 29.4571C48.4401 29.114 47.2848 29.2671 46.1493 29.6117C45.6474 29.7641 45.1706 29.9979 44.6392 30.2113C44.43 29.4964 44.2177 28.7709 44.0017 28.0333C44.8863 27.5084 45.8256 27.2068 46.8103 27.025C48.0111 26.8033 49.2164 26.7339 50.424 26.9571C52.7633 27.3885 54.212 28.9413 54.469 31.3025C54.5228 31.801 54.544 32.3048 54.5501 32.8071C54.5743 34.8674 54.5804 36.9277 54.6085 38.9881C54.616 39.5386 54.6782 40.0891 54.7176 40.6781L54.7184 40.6766ZM51.1403 33.9654C50.2125 34.0891 49.3369 34.1691 48.478 34.3319C47.8814 34.4451 47.3333 34.7166 46.9157 35.1924C46.0052 36.2309 46.3873 37.9896 47.6153 38.4006C49.0943 38.8953 50.8833 37.8893 51.1214 36.3516C51.2343 35.6193 51.1411 34.8561 51.1411 33.9647L51.1403 33.9654Z" fill="#EDE1D2"/>
<path d="M28.8055 18.9261H25.6876C25.6103 18.4352 25.5337 17.948 25.4435 17.3749C25.2987 17.5295 25.2085 17.6245 25.1206 17.721C23.468 19.531 20.0984 19.755 18.3731 18.1705C16.4658 16.4186 16.7046 13.1479 18.8514 11.6004C20.0097 10.7655 21.3386 10.3982 22.7304 10.2316C23.5302 10.1358 24.3367 10.1026 25.1448 10.0408C25.3541 9.09507 24.7234 8.04303 23.7401 7.72856C22.5591 7.34997 21.3909 7.52267 20.2417 7.8643C19.7391 8.01362 19.2623 8.25043 18.7278 8.46611C18.5209 7.75872 18.3079 7.03172 18.0903 6.28889C18.9189 5.7919 19.8073 5.49251 20.7397 5.31C22.0512 5.05208 23.371 4.96988 24.687 5.24967C26.8975 5.71951 28.2536 7.19462 28.5394 9.43444C28.6077 9.96837 28.6296 10.5114 28.6365 11.0498C28.6622 13.0853 28.6653 15.1207 28.6933 17.1554C28.7009 17.7301 28.7646 18.3047 28.8055 18.9261ZM25.3033 12.3507C24.0926 12.3092 22.998 12.3816 21.9701 12.8175C21.61 12.9699 21.2552 13.2157 20.9952 13.5046C20.0833 14.5174 20.4865 16.2693 21.6941 16.6803C23.0806 17.1524 24.8689 16.2489 25.1668 14.8251C25.3328 14.031 25.2646 13.1878 25.3033 12.3507Z" fill="#EDE1D2"/>
<path d="M57.9576 16.4191C57.9576 17.1393 57.9622 17.9395 57.95 18.7396C57.9493 18.8068 57.8523 18.9154 57.7818 18.9335C56.3771 19.2849 54.9656 19.438 53.5821 18.8701C52.2737 18.3332 51.7218 17.2306 51.5277 15.9229C51.436 15.3045 51.4133 14.6718 51.408 14.0458C51.3928 12.174 51.4027 10.3015 51.4027 8.42969V7.95609H49.4802V5.4214H51.3814C51.3898 5.25322 51.4019 5.12124 51.4027 4.98927C51.4042 4.21023 51.3981 3.4312 51.4102 2.65216C51.4118 2.53678 51.4762 2.3407 51.549 2.32185C52.6065 2.0413 53.6708 1.78414 54.7958 1.50586V5.37313H58.0774V7.94704H54.8518C54.8291 8.02547 54.8041 8.07223 54.8041 8.11898C54.8109 10.217 54.8071 12.3151 54.8397 14.4123C54.8458 14.8037 54.9527 15.2095 55.0914 15.579C55.2892 16.1062 55.7236 16.389 56.2884 16.4146C56.8114 16.4387 57.336 16.4199 57.9569 16.4199L57.9576 16.4191Z" fill="#EDE1D2"/>
<path d="M48.2665 18.9261H44.8491V0H48.2665V18.9261Z" fill="#EDE1D2"/>
<path d="M30.6946 21.9282H34.1187V40.665H30.6946V21.9282Z" fill="#EDE1D2"/>
<path d="M37.302 21.9292H40.7246V40.6652H37.302V21.9292Z" fill="#EDE1D2"/>
<path d="M27.5313 40.6789H24.1003V27.1396H27.5313V40.6789Z" fill="#EDE1D2"/>
<path d="M63.6097 26.0385C62.1732 25.8831 60.8087 25.5656 59.7209 24.5498C58.2033 23.1328 57.9948 20.4141 59.3055 18.9171C60.0393 18.0785 61.0392 17.6908 62.086 17.4035C62.2172 17.3673 62.3536 17.3469 62.5075 17.3379C61.24 18.0649 60.9611 19.2843 60.8777 20.577C60.7799 22.0815 60.9353 23.5385 61.8882 24.804C62.3362 25.3982 62.9427 25.758 63.6097 26.0385Z" fill="#EDE1D2"/>
<path d="M66.9261 18.8569C67.8578 19.0507 68.7144 19.3931 69.4353 20.0176C70.956 21.3336 70.6535 23.7717 69.3057 24.8841C68.3286 25.6903 67.1634 25.9459 65.9338 26.0545C67.3067 25.5078 67.8388 24.3856 67.9601 23.044C68.0352 22.2121 68.0056 21.3645 67.9472 20.5289C67.8987 19.826 67.5826 19.2287 66.9261 18.8569Z" fill="#EDE1D2"/>
<path d="M63.4983 9.56396C62.0345 10.251 61.6342 11.5368 61.5509 12.9735C61.5107 13.6597 61.5493 14.3543 61.6077 15.0406C61.6653 15.7148 61.9519 16.294 62.6121 16.6944C61.0179 16.4403 59.5018 15.4501 59.1819 14.0172C58.812 12.3588 59.6709 10.745 61.281 10.0692C61.9852 9.77362 62.7122 9.56472 63.4976 9.56396H63.4983Z" fill="#EDE1D2"/>
<path d="M25.78 25.1636C24.6816 25.1689 23.8629 24.4027 23.8546 23.3627C23.8455 22.2881 24.6824 21.4789 25.7952 21.4849C26.9042 21.4909 27.701 22.2624 27.7139 23.3416C27.726 24.4012 26.9224 25.1584 25.78 25.1636Z" fill="#EDE1D2"/>
<path d="M70.8764 13.8584C71.2069 14.6985 70.859 15.6329 70.0183 16.2596C69.2913 16.8011 68.4582 17.1186 67.6114 17.4157C66.4364 17.8282 65.2614 18.2438 64.1039 18.7008C63.6581 18.8765 63.2738 19.1842 63.0979 19.6902C62.8682 19.1261 62.9387 18.5899 63.2708 18.0914C63.671 17.4911 64.2775 17.1359 64.9249 16.884C66.0506 16.4459 67.2006 16.0688 68.3361 15.6555C68.8092 15.4836 69.2814 15.3049 69.7378 15.0952C70.3928 14.7943 70.6058 14.5462 70.8764 13.8584Z" fill="#EDE1D2"/>
<path d="M65.5972 9.52273C66.6357 9.78668 67.484 10.1404 67.9896 11.0159C68.4232 11.7678 68.2307 12.5959 67.5682 12.9073C67.0913 13.1313 66.519 13.0521 66.1544 12.7128C65.7784 12.3628 65.6692 11.8327 65.8762 11.3259C65.9285 11.1984 65.9952 11.0763 66.0642 10.9564C66.3924 10.387 66.353 10.1622 65.8481 9.74143C65.7905 9.69392 65.7352 9.64339 65.5964 9.52197L65.5972 9.52273Z" fill="#EDE1D2"/>
</g>
</g>
<defs>
<clipPath id="clip0_1_793">
<rect width="1440" height="6093" fill="white" transform="translate(-1124 -5894)"/>
</clipPath>
<clipPath id="clip1_1_793">
<rect width="71" height="41" fill="white"/>
</clipPath>
</defs>
</svg>
